<svg width="204" height="204" viewBox="0 0 204 204" fill="none" xmlns="http://www.w3.org/2000/svg">
<path d="M102 0.333313C45.7785 0.333313 0.333496 45.7783 0.333496 102C0.333496 158.222 45.7785 203.667 102 203.667C128.964 203.667 154.823 192.955 173.889 173.889C192.956 154.823 203.667 128.964 203.667 102C203.667 45.7783 157.917 0.333313 102 0.333313ZM102 183.333C80.4292 183.333 59.7418 174.764 44.4888 159.511C29.2359 144.258 20.6668 123.571 20.6668 102C20.6668 80.429 29.2359 59.7416 44.4888 44.4886C59.7418 29.2357 80.4292 20.6666 102 20.6666C123.571 20.6666 144.259 29.2357 159.512 44.4886C174.764 59.7416 183.333 80.429 183.333 102C183.333 123.571 174.764 144.258 159.512 159.511C144.259 174.764 123.571 183.333 102 183.333ZM144.497 58.8933L133.72 69.67L122.943 58.8933L112.167 69.67L122.943 80.4466L112.167 91.2233L122.943 102L133.72 91.2233L144.497 102L155.273 91.2233L144.497 80.4466L155.273 69.67L144.497 58.8933ZM59.5035 102L70.2802 91.2233L81.0568 102L91.8335 91.2233L81.0568 80.4466L91.8335 69.67L81.0568 58.8933L70.2802 69.67L59.5035 58.8933L48.7268 69.67L59.5035 80.4466L48.7268 91.2233L59.5035 102ZM102 122.333C78.3118 122.333 58.1818 137.177 50.0485 157.917H153.952C145.818 137.177 125.688 122.333 102 122.333Z" fill="#383838"/>
</svg>
