<svg width="224" height="224" viewBox="0 0 224 224" fill="none" xmlns="http://www.w3.org/2000/svg">
<path d="M93.3333 86.1747C93.3333 83.0805 92.1042 80.113 89.9162 77.9251C87.7283 75.7372 84.7609 74.508 81.6667 74.508C78.5725 74.508 75.605 75.7372 73.4171 77.9251C71.2292 80.113 70 83.0805 70 86.1747C70 89.2689 71.2292 92.2363 73.4171 94.4242C75.605 96.6122 78.5725 97.8413 81.6667 97.8413C84.7609 97.8413 87.7283 96.6122 89.9162 94.4242C92.1042 92.2363 93.3333 89.2689 93.3333 86.1747ZM142.333 74.508C143.865 74.508 145.383 74.8098 146.798 75.3961C148.213 75.9824 149.5 76.8417 150.583 77.9251C151.666 79.0084 152.526 80.2946 153.112 81.71C153.698 83.1255 154 84.6426 154 86.1747C154 87.7067 153.698 89.2238 153.112 90.6393C152.526 92.0548 151.666 93.3409 150.583 94.4242C149.5 95.5076 148.213 96.367 146.798 96.9533C145.383 97.5396 143.865 97.8413 142.333 97.8413C139.239 97.8413 136.272 96.6122 134.084 94.4242C131.896 92.2363 130.667 89.2689 130.667 86.1747C130.667 83.0805 131.896 80.113 134.084 77.9251C136.272 75.7372 139.239 74.508 142.333 74.508ZM86.1467 151.807C85.5844 152.554 84.8779 153.182 84.069 153.652C83.2601 154.122 82.3652 154.425 81.4372 154.543C80.5092 154.661 79.5669 154.592 78.666 154.34C77.7651 154.088 76.9238 153.658 76.192 153.075C75.4601 152.493 74.8525 151.769 74.405 150.947C73.9575 150.126 73.6793 149.223 73.5867 148.292C73.4941 147.361 73.589 146.421 73.8659 145.527C74.1428 144.634 74.5959 143.805 75.1987 143.089C79.5986 137.548 85.1941 133.074 91.5668 130C97.9395 126.926 104.925 125.332 112 125.337C119.075 125.332 126.06 126.926 132.433 130C138.806 133.074 144.401 137.548 148.801 143.089C149.404 143.805 149.857 144.634 150.134 145.527C150.411 146.421 150.506 147.361 150.413 148.292C150.321 149.223 150.042 150.126 149.595 150.947C149.148 151.769 148.54 152.493 147.808 153.075C147.076 153.658 146.235 154.088 145.334 154.34C144.433 154.592 143.491 154.661 142.563 154.543C141.635 154.425 140.74 154.122 139.931 153.652C139.122 153.182 138.416 152.554 137.853 151.807C134.763 147.914 130.832 144.772 126.355 142.614C121.877 140.456 116.97 139.339 112 139.347C107.029 139.34 102.121 140.458 97.6441 142.618C93.1668 144.777 89.2362 147.922 86.1467 151.816" fill="#B53B3B"/>
<path fill-rule="evenodd" clip-rule="evenodd" d="M112 18.6667C60.4518 18.6667 18.6665 60.452 18.6665 112C18.6665 163.548 60.4518 205.333 112 205.333C163.548 205.333 205.333 163.548 205.333 112C205.333 60.452 163.548 18.6667 112 18.6667ZM32.6665 112C32.6665 90.9595 41.0248 70.7808 55.9027 55.9029C70.7806 41.025 90.9593 32.6667 112 32.6667C133.04 32.6667 153.219 41.025 168.097 55.9029C182.975 70.7808 191.333 90.9595 191.333 112C191.333 133.041 182.975 153.219 168.097 168.097C153.219 182.975 133.04 191.333 112 191.333C90.9593 191.333 70.7806 182.975 55.9027 168.097C41.0248 153.219 32.6665 133.041 32.6665 112Z" fill="#B53B3B"/>
</svg>
