<svg width="201" height="202" viewBox="0 0 201 202" fill="none" xmlns="http://www.w3.org/2000/svg">
<path d="M100.52 0.583313C155.99 0.583313 200.957 45.5499 200.957 101.02C200.957 156.48 155.99 201.437 100.52 201.437C45.0501 201.437 0.0834961 156.48 0.0834961 101.02C0.0834961 45.5499 45.0501 0.583313 100.52 0.583313ZM100.52 15.6458C89.2315 15.5234 78.0305 17.6411 67.5657 21.8764C57.1008 26.1117 47.5799 32.3804 39.5539 40.3199C31.5279 48.2593 25.1562 57.7117 20.8077 68.13C16.4592 78.5483 14.2201 89.7256 14.2201 101.015C14.2201 112.304 16.4592 123.482 20.8077 133.9C25.1562 144.318 31.5279 153.771 39.5539 161.71C47.5799 169.65 57.1008 175.918 67.5657 180.154C78.0305 184.389 89.2315 186.507 100.52 186.384C123.001 186.14 144.479 177.039 160.29 161.056C176.1 145.072 184.969 123.497 184.969 101.015C184.969 78.5328 176.1 56.9579 160.29 40.9746C144.479 24.9912 123.001 15.8896 100.52 15.6458ZM64.9928 128.966C69.2234 134.342 74.6192 138.687 80.7734 141.673C86.9276 144.66 93.6796 146.21 100.52 146.208C107.355 146.217 114.102 144.672 120.251 141.69C126.401 138.709 131.792 134.368 136.018 128.996C136.631 128.22 137.391 127.572 138.254 127.09C139.118 126.608 140.068 126.3 141.05 126.185C142.032 126.07 143.028 126.149 143.98 126.419C144.931 126.688 145.82 127.143 146.596 127.756C147.372 128.369 148.02 129.129 148.502 129.993C148.985 130.856 149.292 131.806 149.407 132.789C149.523 133.771 149.443 134.766 149.174 135.718C148.904 136.67 148.45 137.559 147.837 138.335C142.201 145.491 135.014 151.274 126.817 155.247C118.621 159.22 109.629 161.279 100.52 161.27C91.3981 161.28 82.3933 159.215 74.1871 155.231C65.9809 151.247 58.7884 145.448 53.1537 138.275C52.5418 137.497 52.0891 136.607 51.8212 135.655C51.5534 134.702 51.4758 133.707 51.5929 132.724C51.7099 131.742 52.0192 130.792 52.5033 129.929C52.9873 129.067 53.6366 128.308 54.4139 127.696C55.1913 127.084 56.0816 126.631 57.0339 126.363C57.9863 126.095 58.982 126.018 59.9644 126.135C60.9467 126.252 61.8964 126.561 62.7592 127.045C63.622 127.529 64.381 128.179 64.9928 128.956M70.3952 68.3847C72.0728 68.3372 73.7429 68.6266 75.3066 69.2358C76.8704 69.845 78.2961 70.7616 79.4995 71.9314C80.7029 73.1012 81.6594 74.5005 82.3126 76.0464C82.9658 77.5923 83.3023 79.2535 83.3023 80.9317C83.3023 82.61 82.9658 84.2712 82.3126 85.8171C81.6594 87.363 80.7029 88.7622 79.4995 89.932C78.2961 91.1018 76.8704 92.0184 75.3066 92.6276C73.7429 93.2368 72.0728 93.5262 70.3952 93.4788C67.129 93.3864 64.0275 92.0239 61.7499 89.681C59.4723 87.338 58.1982 84.1993 58.1982 80.9317C58.1982 77.6642 59.4723 74.5254 61.7499 72.1825C64.0275 69.8395 67.129 68.4771 70.3952 68.3847ZM130.645 68.3847C132.323 68.3372 133.993 68.6266 135.557 69.2358C137.12 69.845 138.546 70.7616 139.749 71.9314C140.953 73.1012 141.909 74.5005 142.563 76.0464C143.216 77.5923 143.552 79.2535 143.552 80.9317C143.552 82.61 143.216 84.2712 142.563 85.8171C141.909 87.363 140.953 88.7622 139.749 89.932C138.546 91.1018 137.12 92.0184 135.557 92.6276C133.993 93.2368 132.323 93.5262 130.645 93.4788C127.379 93.3864 124.278 92.0239 122 89.681C119.722 87.338 118.448 84.1993 118.448 80.9317C118.448 77.6642 119.722 74.5254 122 72.1825C124.278 69.8395 127.379 68.4771 130.645 68.3847Z" fill="#3B94B5"/>
</svg>
