<svg width="196" height="196" viewBox="0 0 196 196" fill="none" xmlns="http://www.w3.org/2000/svg">
<path d="M67.4999 91.9C70.7355 91.9 73.8387 90.6147 76.1266 88.3267C78.4145 86.0388 79.6999 82.9357 79.6999 79.7C79.6999 76.4644 78.4145 73.3613 76.1266 71.0733C73.8387 68.7854 70.7355 67.5 67.4999 67.5C64.2643 67.5 61.1611 68.7854 58.8732 71.0733C56.5853 73.3613 55.2999 76.4644 55.2999 79.7C55.2999 82.9357 56.5853 86.0388 58.8732 88.3267C61.1611 90.6147 64.2643 91.9 67.4999 91.9ZM140.7 79.7C140.7 82.9357 139.415 86.0388 137.127 88.3267C134.839 90.6147 131.736 91.9 128.5 91.9C125.264 91.9 122.161 90.6147 119.873 88.3267C117.585 86.0388 116.3 82.9357 116.3 79.7C116.3 76.4644 117.585 73.3613 119.873 71.0733C122.161 68.7854 125.264 67.5 128.5 67.5C131.736 67.5 134.839 68.7854 137.127 71.0733C139.415 73.3613 140.7 76.4644 140.7 79.7ZM55.2999 122.4C53.6821 122.4 52.1305 123.043 50.9866 124.187C49.8426 125.331 49.1999 126.882 49.1999 128.5C49.1999 130.118 49.8426 131.669 50.9866 132.813C52.1305 133.957 53.6821 134.6 55.2999 134.6H140.7C142.318 134.6 143.869 133.957 145.013 132.813C146.157 131.669 146.8 130.118 146.8 128.5C146.8 126.882 146.157 125.331 145.013 124.187C143.869 123.043 142.318 122.4 140.7 122.4H55.2999ZM0.399902 98C0.399902 72.1149 10.6827 47.29 28.9863 28.9864C47.2898 10.6829 72.1148 0.400024 97.9999 0.400024C123.885 0.400024 148.71 10.6829 167.014 28.9864C185.317 47.29 195.6 72.1149 195.6 98C195.6 123.885 185.317 148.71 167.014 167.014C148.71 185.317 123.885 195.6 97.9999 195.6C72.1148 195.6 47.2898 185.317 28.9863 167.014C10.6827 148.71 0.399902 123.885 0.399902 98ZM97.9999 12.6C86.785 12.6 75.6799 14.809 65.3187 19.1007C54.9575 23.3925 45.5431 29.683 37.613 37.6131C29.6829 45.5432 23.3923 54.9577 19.1006 65.3189C14.8088 75.6801 12.5999 86.7851 12.5999 98C12.5999 109.215 14.8088 120.32 19.1006 130.681C23.3923 141.042 29.6829 150.457 37.613 158.387C45.5431 166.317 54.9575 172.608 65.3187 176.899C75.6799 181.191 86.785 183.4 97.9999 183.4C120.649 183.4 142.371 174.403 158.387 158.387C174.402 142.371 183.4 120.65 183.4 98C183.4 75.3505 174.402 53.6287 158.387 37.6131C142.371 21.5975 120.649 12.6 97.9999 12.6Z" fill="#B5A33B"/>
</svg>
