<svg width="209" height="210" viewBox="0 0 209 210" fill="none" xmlns="http://www.w3.org/2000/svg">
<path d="M104.5 0.5C114.093 0.5 123.345 1.72461 132.258 4.17383C141.17 6.62305 149.504 10.1268 157.26 14.6851C165.016 19.2433 172.058 24.686 178.385 31.0132C184.712 37.3403 190.155 44.4159 194.713 52.2397C199.271 60.0636 202.775 68.3978 205.224 77.2422C207.673 86.0866 208.932 95.3392 209 105C209 114.593 207.775 123.845 205.326 132.758C202.877 141.67 199.373 150.004 194.815 157.76C190.257 165.516 184.814 172.558 178.487 178.885C172.16 185.212 165.084 190.655 157.26 195.213C149.436 199.771 141.102 203.275 132.258 205.724C123.413 208.173 114.161 209.432 104.5 209.5C94.9072 209.5 85.6546 208.275 76.7422 205.826C67.8298 203.377 59.4956 199.873 51.7397 195.315C43.9839 190.757 36.9424 185.314 30.6152 178.987C24.2881 172.66 18.8454 165.584 14.2871 157.76C9.72884 149.936 6.2251 141.636 3.77588 132.86C1.32666 124.083 0.0680339 114.797 0 105C0 95.4072 1.22461 86.1546 3.67383 77.2422C6.12305 68.3298 9.62679 59.9956 14.1851 52.2397C18.7433 44.4839 24.186 37.4424 30.5132 31.1152C36.8403 24.7881 43.9159 19.3454 51.7397 14.7871C59.5636 10.2288 67.8638 6.7251 76.6401 4.27588C85.4165 1.82666 94.7031 0.568034 104.5 0.5ZM104.5 196.438C112.868 196.438 120.93 195.349 128.686 193.172C136.442 190.995 143.722 187.933 150.525 183.987C157.328 180.041 163.519 175.245 169.098 169.598C174.677 163.951 179.439 157.794 183.385 151.127C187.331 144.46 190.427 137.18 192.672 129.288C194.917 121.396 196.006 113.3 195.938 105C195.938 96.6318 194.849 88.5698 192.672 80.814C190.495 73.0581 187.433 65.7785 183.487 58.9751C179.541 52.1717 174.745 45.9806 169.098 40.4019C163.451 34.8231 157.294 30.0607 150.627 26.1147C143.96 22.1688 136.68 19.0732 128.788 16.8281C120.896 14.583 112.8 13.4945 104.5 13.5625C96.1318 13.5625 88.0698 14.651 80.314 16.8281C72.5581 19.0052 65.2785 22.0667 58.4751 26.0127C51.6717 29.9587 45.4806 34.755 39.9019 40.4019C34.3231 46.0487 29.5607 52.2057 25.6147 58.873C21.6688 65.5404 18.5732 72.82 16.3281 80.7119C14.083 88.6038 12.9945 96.6999 13.0625 105C13.0625 113.368 14.151 121.43 16.3281 129.186C18.5052 136.942 21.5667 144.222 25.5127 151.025C29.4587 157.828 34.255 164.019 39.9019 169.598C45.5487 175.177 51.7057 179.939 58.373 183.885C65.0404 187.831 72.32 190.927 80.2119 193.172C88.1038 195.417 96.1999 196.506 104.5 196.438ZM65.3125 52.75C67.1494 52.75 68.8503 53.0902 70.415 53.7705C71.9798 54.4508 73.3405 55.3693 74.4971 56.5259C75.6536 57.6825 76.6061 59.0771 77.3545 60.71C78.1029 62.3428 78.443 64.0436 78.375 65.8125H52.25C52.25 63.9756 52.5902 62.2747 53.2705 60.71C53.9508 59.1452 54.8693 57.7845 56.0259 56.6279C57.1825 55.4714 58.5771 54.5189 60.21 53.7705C61.8428 53.0221 63.5436 52.682 65.3125 52.75ZM143.688 52.75C145.524 52.75 147.225 53.0902 148.79 53.7705C150.355 54.4508 151.715 55.3693 152.872 56.5259C154.029 57.6825 154.981 59.0771 155.729 60.71C156.478 62.3428 156.818 64.0436 156.75 65.8125H130.625C130.625 63.9756 130.965 62.2747 131.646 60.71C132.326 59.1452 133.244 57.7845 134.401 56.6279C135.557 55.4714 136.952 54.5189 138.585 53.7705C140.218 53.0221 141.919 52.682 143.688 52.75ZM150.219 78.875C152.94 78.875 155.491 79.3853 157.873 80.4058C160.254 81.4263 162.329 82.821 164.098 84.5898C165.867 86.3587 167.261 88.4338 168.282 90.8149C169.302 93.1961 169.812 95.7474 169.812 98.4688V105C169.812 114.049 168.112 122.519 164.71 130.411C161.308 138.303 156.648 145.242 150.729 151.229C144.81 157.216 137.905 161.876 130.013 165.21C122.121 168.544 113.617 170.244 104.5 170.312C95.4515 170.312 86.9813 168.612 79.0894 165.21C71.1974 161.808 64.258 157.148 58.271 151.229C52.284 145.31 47.6237 138.405 44.29 130.513C40.9564 122.621 39.2555 114.117 39.1875 105C39.1875 101.734 39.4596 98.5368 40.0039 95.4072C40.5482 92.2777 41.5347 89.4883 42.9634 87.0391C44.3921 84.5898 46.3651 82.6169 48.8823 81.1201C51.3996 79.6234 54.6992 78.875 58.7812 78.875C63.8158 78.875 68.2039 79.5553 71.9458 80.916C75.6877 82.2767 79.2254 83.7734 82.5591 85.4062C85.8927 87.0391 89.2944 88.5358 92.7642 89.8965C96.2339 91.2572 100.146 91.9375 104.5 91.9375C108.854 91.9375 112.732 91.2572 116.134 89.8965C119.535 88.5358 122.937 87.0391 126.339 85.4062C129.741 83.7734 133.312 82.2767 137.054 80.916C140.796 79.5553 145.184 78.875 150.219 78.875ZM156.75 98.4688C156.75 96.6999 156.104 95.1691 154.811 93.8765C153.518 92.5838 151.988 91.9375 150.219 91.9375C147.293 91.9375 144.606 92.2437 142.157 92.856C139.708 93.4683 137.36 94.2847 135.115 95.3052C132.87 96.3257 130.625 97.3802 128.38 98.4688C126.135 99.5573 123.822 100.612 121.44 101.632C119.059 102.653 116.474 103.435 113.685 103.979C110.895 104.524 107.834 104.864 104.5 105C101.166 105 98.1388 104.694 95.4175 104.082C92.6961 103.469 90.1108 102.653 87.6616 101.632C85.2124 100.612 82.8993 99.5573 80.7222 98.4688C78.5451 97.3802 76.3 96.3257 73.9868 95.3052C71.6737 94.2847 69.2925 93.5023 66.8433 92.958C64.394 92.4137 61.7067 92.0736 58.7812 91.9375C57.0124 91.9375 55.4816 92.5838 54.189 93.8765C52.8963 95.1691 52.25 96.6999 52.25 98.4688V105C52.25 112.212 53.6107 118.981 56.332 125.308C59.0534 131.635 62.7952 137.146 67.5576 141.84C72.32 146.535 77.8647 150.277 84.1919 153.066C90.519 155.855 97.2884 157.25 104.5 157.25C111.712 157.25 118.481 155.889 124.808 153.168C131.135 150.447 136.646 146.705 141.34 141.942C146.035 137.18 149.777 131.635 152.566 125.308C155.355 118.981 156.75 112.212 156.75 105V98.4688Z" fill="#62C6A4"/>
</svg>
