<svg width="51" height="37" viewBox="0 0 51 37" fill="none" xmlns="http://www.w3.org/2000/svg">
<path d="M12.75 37C9.23409 37 6.2305 35.7859 3.73923 33.3578C1.24795 30.9297 0.00154545 27.962 0 24.4547C0 21.4484 0.907954 18.7698 2.72386 16.4188C4.53977 14.0677 6.91591 12.5646 9.85227 11.9094C10.8182 8.36354 12.75 5.49219 15.6477 3.29531C18.5455 1.09844 21.8295 0 25.5 0C30.0205 0 33.8555 1.57096 37.0051 4.71288C40.1548 7.85479 41.7288 11.6797 41.7273 16.1875C44.3932 16.4958 46.6055 17.6428 48.3642 19.6285C50.123 21.6142 51.0015 23.9359 51 26.5938C51 29.4844 49.9862 31.9418 47.9585 33.966C45.9309 35.9902 43.4675 37.0015 40.5682 37H12.75Z" fill="#CD6E6E"/>
</svg>
