<svg width="52" height="52" viewBox="0 0 52 52" fill="none" xmlns="http://www.w3.org/2000/svg">
<path fill-rule="evenodd" clip-rule="evenodd" d="M38.9165 3.6283C26.5604 -3.50686 10.7607 0.72722 3.62813 13.0833C-3.50445 25.4394 0.727048 41.2391 13.0831 48.3716C25.4392 55.5042 41.2415 51.2727 48.3715 38.9166C55.5015 26.5606 51.2726 10.7609 38.9165 3.6283ZM8.10247 15.6666C9.44957 13.2973 11.252 11.2178 13.4061 9.54791C15.5601 7.87801 18.0232 6.65068 20.6535 5.93656C23.2838 5.22245 26.0294 5.03567 28.7322 5.38698C31.435 5.73828 34.0416 6.62073 36.4019 7.98352C38.7623 9.34631 40.8297 11.1625 42.4853 13.3276C44.1409 15.4927 45.3519 17.9638 46.0485 20.5988C46.7452 23.2338 46.9137 25.9806 46.5445 28.681C46.1753 31.3813 45.2756 33.982 43.8971 36.3333C41.1371 41.0413 36.6269 44.4665 31.3508 45.8614C26.0747 47.2563 20.461 46.5077 15.7348 43.779C11.0086 41.0502 7.55354 36.5628 6.12366 31.2961C4.69377 26.0294 5.40512 20.4108 8.10247 15.6666Z" fill="#74BDA5"/>
<path d="M17.356 33.9256C17.5964 33.686 17.8817 33.496 18.1956 33.3667C18.5095 33.2373 18.8458 33.1711 19.1853 33.1719C19.5248 33.1726 19.8608 33.2402 20.1741 33.3709C20.4875 33.5015 20.772 33.6927 21.0114 33.9334C21.4402 34.3648 22.1739 34.7678 23.1788 35.0571C24.1553 35.3413 25.1912 35.4576 25.9998 35.4576C26.8084 35.4576 27.8443 35.3413 28.8208 35.0571C29.8231 34.7678 30.5594 34.3648 30.9908 33.9334C31.4789 33.473 32.127 33.2206 32.7979 33.2295C33.4688 33.2385 34.1099 33.5081 34.5856 33.9814C35.0612 34.4547 35.334 35.0945 35.3463 35.7653C35.3586 36.4362 35.1094 37.0855 34.6514 37.5759C33.3752 38.8598 31.7245 39.5986 30.2546 40.0223C28.871 40.4186 27.439 40.6204 25.9998 40.6216C24.5606 40.6204 23.1286 40.4186 21.7451 40.0223C20.2751 39.5986 18.6244 38.8598 17.3482 37.5785C16.8649 37.093 16.5943 36.4355 16.5957 35.7505C16.5972 35.0654 16.8706 34.4091 17.356 33.9256ZM13.4706 21.1278C13.8504 21.7891 15.155 23.1506 16.9581 23.1506C18.7613 23.1506 20.0659 21.7891 20.4456 21.1278L23.804 23.0601C23.0367 24.3957 20.6652 27.0256 16.9581 27.0256C13.2511 27.0256 10.8796 24.3957 10.1123 23.0601L13.4706 21.1278ZM31.554 21.1278C31.9337 21.7891 33.2383 23.1506 35.0415 23.1506C36.8446 23.1506 38.1492 21.7891 38.529 21.1278L41.8873 23.0601C41.1201 24.3957 38.7486 27.0256 35.0415 27.0256C31.3344 27.0256 28.9629 24.3957 28.1956 23.0601L31.554 21.1278Z" fill="#74BDA5"/>
</svg>
