<svg width="51" height="56" viewBox="0 0 51 56" fill="none" xmlns="http://www.w3.org/2000/svg">
<path d="M27.0099 54.1141L26.9794 54.1192L26.799 54.2081L26.7482 54.2183L26.7126 54.2081L26.5321 54.1166C26.505 54.1098 26.4847 54.1149 26.4711 54.1319L26.4609 54.1573L26.4177 55.2451L26.4304 55.2959L26.4559 55.329L26.7202 55.5171L26.7583 55.5272L26.7888 55.5171L27.0532 55.329L27.0837 55.2883L27.0938 55.2451L27.0506 54.1598C27.0438 54.1327 27.0303 54.1175 27.0099 54.1141ZM27.6809 53.8269L27.6454 53.8319L27.1777 54.0683L27.1523 54.0937L27.1447 54.1217L27.1904 55.2146L27.2031 55.2451L27.2234 55.2654L27.7343 55.4993C27.7665 55.5077 27.7911 55.501 27.808 55.4789L27.8182 55.4434L27.7318 53.8828C27.7233 53.8506 27.7064 53.8319 27.6809 53.8269ZM25.8636 53.8319C25.8524 53.8252 25.8391 53.823 25.8263 53.8258C25.8135 53.8286 25.8023 53.8363 25.795 53.8472L25.7798 53.8828L25.6934 55.4434C25.6951 55.4739 25.7095 55.4942 25.7366 55.5044L25.7747 55.4993L26.2856 55.2629L26.311 55.2426L26.3186 55.2146L26.3644 54.1217L26.3567 54.0912L26.3313 54.0658L25.8636 53.8319Z" fill="#B5A33B"/>
<path d="M25.5002 0.083313C39.5378 0.083313 50.9168 11.4624 50.9168 25.5C50.9168 39.5376 39.5378 50.9166 25.5002 50.9166C11.4625 50.9166 0.0834961 39.5376 0.0834961 25.5C0.0834961 11.4624 11.4625 0.083313 25.5002 0.083313ZM25.5002 5.16665C20.1074 5.16665 14.9356 7.3089 11.1223 11.1221C7.30908 14.9354 5.16683 20.1072 5.16683 25.5C5.16683 30.8927 7.30908 36.0646 11.1223 39.8778C14.9356 43.6911 20.1074 45.8333 25.5002 45.8333C30.8929 45.8333 36.0648 43.6911 39.878 39.8778C43.6912 36.0646 45.8335 30.8927 45.8335 25.5C45.8335 20.1072 43.6912 14.9354 39.878 11.1221C36.0648 7.3089 30.8929 5.16665 25.5002 5.16665ZM20.8438 34.256C23.8964 29.6785 30.0192 26.5497 36.2845 28.1179C36.6132 28.1941 36.9234 28.335 37.1971 28.5324C37.4708 28.7298 37.7024 28.9797 37.8785 29.2676C38.0546 29.5554 38.1716 29.8755 38.2227 30.209C38.2738 30.5426 38.258 30.883 38.1761 31.2103C38.0943 31.5377 37.9481 31.8455 37.746 32.1157C37.544 32.386 37.2901 32.6133 36.9993 32.7845C36.7085 32.9556 36.3865 33.0671 36.0521 33.1125C35.7177 33.1578 35.3777 33.1362 35.0517 33.0487C31.1503 32.0727 27.104 34.0298 25.0732 37.0773C24.699 37.6381 24.1174 38.0274 23.4563 38.1594C22.7952 38.2914 22.1087 38.1554 21.5479 37.7813C20.987 37.4072 20.5978 36.8256 20.4657 36.1645C20.3337 35.5034 20.4697 34.8169 20.8438 34.256ZM19.146 15.3333C20.1571 15.3333 21.1269 15.735 21.8418 16.45C22.5568 17.1649 22.9585 18.1347 22.9585 19.1458C22.9585 20.1569 22.5568 21.1267 21.8418 21.8417C21.1269 22.5566 20.1571 22.9583 19.146 22.9583C18.1349 22.9583 17.1651 22.5566 16.4501 21.8417C15.7352 21.1267 15.3335 20.1569 15.3335 19.1458C15.3335 18.1347 15.7352 17.1649 16.4501 16.45C17.1651 15.735 18.1349 15.3333 19.146 15.3333ZM34.396 12.7916C35.4071 12.7916 36.3769 13.1933 37.0918 13.9083C37.8068 14.6233 38.2085 15.593 38.2085 16.6041C38.2085 17.6153 37.8068 18.585 37.0918 19.3C36.3769 20.015 35.4071 20.4166 34.396 20.4166C33.3849 20.4166 32.4151 20.015 31.7001 19.3C30.9852 18.585 30.5835 17.6153 30.5835 16.6041C30.5835 15.593 30.9852 14.6233 31.7001 13.9083C32.4151 13.1933 33.3849 12.7916 34.396 12.7916Z" fill="#B5A33B"/>
</svg>
