<svg width="50" height="50" viewBox="0 0 50 50" fill="none" xmlns="http://www.w3.org/2000/svg">
<path d="M25 0.25C11.3524 0.25 0.25 11.3524 0.25 25C0.25 38.6476 11.3524 49.75 25 49.75C38.6476 49.75 49.75 38.6476 49.75 25C49.75 11.3524 38.6476 0.25 25 0.25ZM25 4.375C36.4159 4.375 45.625 13.5841 45.625 25C45.625 36.4159 36.4159 45.625 25 45.625C13.5841 45.625 4.375 36.4159 4.375 25C4.375 13.5841 13.5841 4.375 25 4.375ZM16.75 12.625C14.1966 12.625 12.2538 14.0502 10.9482 15.2671C10.1673 15.9939 9.4561 16.7921 8.82381 17.6513L12.3032 19.9737C12.3032 19.9737 12.8106 19.0786 13.7202 18.2329C14.6298 17.3873 15.8157 16.75 16.75 16.75H22.9375V12.625H16.75ZM27.0625 12.625V16.75H33.25C34.1843 16.75 35.3682 17.3873 36.2798 18.2329C37.1894 19.0786 37.6968 19.9737 37.6968 19.9737L41.1782 17.6513C41.1782 17.6513 40.3553 16.4839 39.0498 15.2671C37.7463 14.0502 35.8034 12.625 33.25 12.625H27.0625ZM9.53125 20.875C9.53125 20.875 6.4375 26.386 6.4375 28.0938C6.4375 28.9143 6.76345 29.7012 7.34364 30.2814C7.92383 30.8616 8.71074 31.1875 9.53125 31.1875C10.3518 31.1875 11.1387 30.8616 11.7189 30.2814C12.2991 29.7012 12.625 28.9143 12.625 28.0938C12.625 26.386 9.53125 20.875 9.53125 20.875ZM25 25C20.182 25 16.8861 27.5451 15.0732 29.9624C13.2603 32.3796 12.6889 34.7969 12.6889 34.7969L12.0475 37.375H37.9525L37.309 34.7969C37.309 34.7969 36.7356 32.3796 34.9227 29.9624C33.1139 27.5451 29.8201 25 25 25ZM25 29.125C28.4485 29.125 30.2924 30.7049 31.5752 32.4126C31.8888 32.8396 31.8083 32.8561 32.0249 33.25H17.9751C18.1917 32.8561 18.1112 32.8375 18.4268 32.4126C19.7035 30.7049 21.5515 29.125 25 29.125Z" fill="#CD6E6E"/>
</svg>
