<svg width="38" height="50" viewBox="0 0 38 50" fill="none" xmlns="http://www.w3.org/2000/svg">
<path d="M25.154 16C25.154 14.8065 24.6354 13.6619 23.7121 12.818C22.7888 11.9741 21.5366 11.5 20.231 11.5" stroke="#74BDA5" stroke-width="5" stroke-linecap="round" stroke-linejoin="round"/>
<path d="M20.2308 36.25C28.3883 36.25 35 27.1825 35 16C35 12.4196 33.444 8.9858 30.6742 6.45406C27.9044 3.92232 24.1478 2.5 20.2308 2.5C16.3137 2.5 12.5571 3.92232 9.78735 6.45406C7.01758 8.9858 5.46154 12.4196 5.46154 16C5.46154 27.1825 12.0732 36.25 20.2308 36.25ZM20.2308 36.25V38.5C20.2308 39.6935 19.7121 40.8381 18.7888 41.682C17.8656 42.5259 16.6134 43 15.3077 43H7.92308C6.6174 43 5.36519 43.4741 4.44194 44.318C3.51868 45.1619 3 46.3065 3 47.5" stroke="#74BDA5" stroke-width="5" stroke-linecap="round" stroke-linejoin="round"/>
</svg>
