<svg width="48" height="48" viewBox="0 0 48 48" fill="none" xmlns="http://www.w3.org/2000/svg">
<path fill-rule="evenodd" clip-rule="evenodd" d="M23.9933 0.157717C22.4719 0.157106 20.9716 0.514274 19.6137 1.20038C18.2558 1.88649 17.0782 2.88231 16.1762 4.10743C15.0753 3.60283 13.8753 3.35133 12.6645 3.3714C11.4537 3.39148 10.2627 3.68263 9.1792 4.22345C8.09567 4.76428 7.1471 5.54103 6.40321 6.49661C5.65932 7.4522 5.13901 8.56234 4.88053 9.74543C4.62204 10.9285 4.63196 12.1545 4.90954 13.3333C5.18712 14.512 5.72531 15.6136 6.48456 16.557C7.24381 17.5005 8.20481 18.2618 9.29695 18.785C10.3891 19.3082 11.5846 19.5801 12.7956 19.5806H16.183V15.4937C16.183 14.9254 16.4088 14.3804 16.8106 13.9785C17.2125 13.5766 17.7575 13.3509 18.3259 13.3509C18.8942 13.3509 19.4392 13.5766 19.8411 13.9785C20.243 14.3804 20.4687 14.9254 20.4687 15.4937V25.2411H27.5179V15.4937C27.5179 14.9254 27.7436 14.3804 28.1455 13.9785C28.5474 13.5766 29.0924 13.3509 29.6607 13.3509C30.229 13.3509 30.7741 13.5766 31.1759 13.9785C31.5778 14.3804 31.8036 14.9254 31.8036 15.4937V19.5771H35.191C36.402 19.5767 37.5975 19.3048 38.6896 18.7816C39.7818 18.2583 40.7428 17.497 41.502 16.5536C42.2613 15.6102 42.7995 14.5086 43.077 13.3298C43.3546 12.1511 43.3645 10.9251 43.1061 9.742C42.8476 8.55891 42.3273 7.44877 41.5834 6.49318C40.8395 5.5376 39.8909 4.76085 38.8074 4.22002C37.7239 3.6792 36.5329 3.38805 35.3221 3.36797C34.1112 3.3479 32.9113 3.5994 31.8104 4.104C30.908 2.87951 29.7303 1.88435 28.3724 1.19885C27.0145 0.513351 25.5144 0.15671 23.9933 0.157717ZM14.3693 30.8091C14.3693 30.3545 14.5499 29.9185 14.8714 29.597C15.1929 29.2755 15.6289 29.0949 16.0836 29.0949H31.9167C32.3714 29.0949 32.8074 29.2755 33.1289 29.597C33.4504 29.9185 33.631 30.3545 33.631 30.8091C33.631 33.9531 35.7293 36.9326 38.6813 39.4766C41.1315 41.5469 43.8655 43.2557 46.8001 44.5509C47.1634 44.7056 47.4621 44.981 47.6458 45.3305C47.8295 45.6801 47.8869 46.0823 47.8083 46.4692C47.7297 46.8562 47.5199 47.2042 47.2144 47.4543C46.9089 47.7045 46.5264 47.8415 46.1316 47.8423H1.86872C1.47387 47.8415 1.09138 47.7045 0.785887 47.4543C0.480393 47.2042 0.270624 46.8562 0.192025 46.4692C0.113425 46.0823 0.170814 45.6801 0.354494 45.3305C0.538174 44.981 0.836884 44.7056 1.20015 44.5509C4.13478 43.2557 6.86881 41.5469 9.31901 39.4766C12.2676 36.9326 14.3693 33.9531 14.3693 30.8091Z" fill="#CD6E6E"/>
</svg>
