<svg width="55" height="55" viewBox="0 0 55 55" fill="none" xmlns="http://www.w3.org/2000/svg">
<path d="M27.5 1.96429V5.89287M39.2857 5.89287L41.25 3.92858M15.7143 5.89287L13.75 3.92858M53.0357 53.0357H43.8154C39.8936 53.0361 36.1134 51.5701 33.2174 48.9256C30.3214 46.2811 28.5188 42.6493 28.1639 38.7436L27.7121 33.77C27.6461 33.0689 27.7819 32.3636 28.1034 31.7372C28.425 31.1107 28.919 30.5893 29.5271 30.2343C30.0462 29.929 30.6318 29.7547 31.2333 29.7264C31.8348 29.6982 32.4342 29.8168 32.9795 30.0721C33.5249 30.3274 34 30.7116 34.3635 31.1917C34.7271 31.6717 34.9684 32.233 35.0664 32.8272L36.1429 39.2857" stroke="#74BDA5" stroke-width="4" stroke-linecap="round" stroke-linejoin="round"/>
<path d="M53.0358 39.2739H46.6558C45.7032 39.2746 44.7828 38.9292 44.0659 38.3019C43.3489 37.6746 42.8844 36.8082 42.7586 35.8639L40.2915 17.3368C40.1885 16.5672 39.886 15.8379 39.414 15.2213C38.942 14.6048 38.317 14.1224 37.6009 13.8222C36.8848 13.5219 36.1027 13.4142 35.3321 13.5098C34.5615 13.6053 33.8294 13.9008 33.2083 14.3668C32.0886 15.2075 31.4286 16.5275 31.4286 17.9261V29.4525M1.96436 53.0357H11.1847C15.1065 53.0361 18.8867 51.5701 21.7827 48.9256C24.6787 46.2811 26.4812 42.6492 26.8361 38.7436L27.2879 33.77C27.354 33.0689 27.2182 32.3636 26.8966 31.7371C26.5751 31.1107 26.0811 30.5892 25.4729 30.2343C24.9539 29.929 24.3683 29.7547 23.7668 29.7264C23.1653 29.6982 22.5659 29.8168 22.0205 30.0721C21.4751 30.3274 21.0001 30.7116 20.6365 31.1916C20.2729 31.6717 20.0317 32.233 19.9336 32.8271L18.8572 39.2857" stroke="#74BDA5" stroke-width="4" stroke-linecap="round" stroke-linejoin="round"/>
<path d="M1.96436 39.27H8.34436C9.29696 39.2707 10.2174 38.9253 10.9343 38.298C11.6512 37.6707 12.1158 36.8043 12.2415 35.86L14.7086 17.3368C14.811 16.5669 15.1131 15.8371 15.5849 15.2201C16.0566 14.603 16.6816 14.1202 17.3978 13.8195C18.1139 13.5188 18.8963 13.4107 19.6672 13.5061C20.438 13.6014 21.1705 13.8968 21.7919 14.3629C22.9115 15.2036 23.5715 16.5236 23.5715 17.9222V29.4486" stroke="#74BDA5" stroke-width="4" stroke-linecap="round" stroke-linejoin="round"/>
</svg>
