<svg width="47" height="47" viewBox="0 0 47 47" fill="none" xmlns="http://www.w3.org/2000/svg">
<path d="M35.7502 16.3513C34.9552 15.4458 34.1381 14.5404 33.2769 13.6792L32.6365 13.0829L32.9456 12.8179C34.0256 11.8909 34.7952 10.6549 35.1506 9.27673C35.506 7.89855 35.4301 6.44453 34.9331 5.11085C34.213 3.60691 33.0728 2.34365 31.6503 1.47368C30.2278 0.603705 28.5838 0.164232 26.9169 0.208345V4.62501C27.7026 4.61407 28.477 4.81296 29.1602 5.20115C29.8435 5.58934 30.4107 6.15278 30.8036 6.83335C31.179 7.71668 30.8036 8.68835 29.7656 9.72626C29.6111 9.90293 29.4344 10.0133 29.2798 10.1679C22.6548 4.84585 15.3894 1.84251 11.834 5.39793C11.4628 5.77969 11.1569 6.21986 10.9286 6.70085V6.92168L10.5311 8.0921L0.792305 37.0213C0.423934 38.1114 0.320598 39.2737 0.490857 40.4117C0.661116 41.5498 1.10007 42.6309 1.77136 43.5655C2.44265 44.5002 3.32696 45.2614 4.35104 45.7862C5.37512 46.311 6.5095 46.5843 7.66022 46.5833C8.41161 46.5764 9.15709 46.4497 9.86856 46.2079L40.1669 36.16C40.5392 36.0214 40.8673 35.7849 41.1165 35.4754L41.5802 35.0779C44.7381 31.8979 42.7065 25.7808 38.4665 19.8404C40.9841 18.3711 43.883 17.6868 46.7919 17.875V13.4583C42.8994 13.2442 39.0377 14.2559 35.7502 16.3513ZM8.58772 42.0121C8.08644 42.178 7.54892 42.2013 7.03516 42.0795C6.52139 41.9576 6.0516 41.6954 5.67824 41.322C5.30487 40.9486 5.04262 40.4788 4.92076 39.9651C4.7989 39.4513 4.82223 38.9138 4.98814 38.4125L7.99147 29.3583C10.1348 33.4457 13.4283 36.816 17.4652 39.0529L8.58772 42.0121ZM24.0461 36.8667C20.7087 35.9828 17.6642 34.2326 15.221 31.7933C12.7778 29.354 11.0227 26.3122 10.1336 22.9763L12.3419 16.3513L12.4744 16.55C12.7173 17.0358 13.0265 17.5438 13.3356 18.0517C13.6448 18.5596 13.689 18.6921 13.9098 19.0233C14.1306 19.3546 14.6386 20.0833 15.0361 20.6354C15.4336 21.1875 15.4556 21.2538 15.6986 21.5629C15.9415 21.8721 16.6481 22.7775 17.1561 23.3738L17.7965 24.1467C18.5473 25.0079 19.3423 25.8471 20.1815 26.7083C21.0206 27.5696 21.6831 28.1217 22.3898 28.9167L23.1186 29.535L24.8411 30.9263L25.6581 31.5446C26.2765 31.9863 26.8727 32.4279 27.4911 32.8254L28.1756 33.2671C28.9706 33.7529 29.7656 34.2167 30.5386 34.6142H30.649L24.0461 36.8667ZM38.4223 31.9421H38.2898C36.7661 32.7813 30.4281 30.6833 23.2952 23.5283C22.5444 22.7775 21.8377 22.0488 21.1973 21.32L20.5569 20.5471L19.3865 19.1338L18.7461 18.2504C18.459 17.8308 18.1498 17.4333 17.8848 17.0358L17.3106 16.1083L16.6702 15.0704C16.4936 14.7613 16.3611 14.4742 16.2065 14.1871C16.0519 13.9 15.8752 13.6129 15.7427 13.3038C15.6227 13.0457 15.5194 12.7801 15.4336 12.5088C15.3231 12.2217 15.1906 11.9346 15.1023 11.6696C15.014 11.4046 14.9919 11.25 14.9256 10.985C14.8594 10.72 14.8152 10.4992 14.7711 10.2783C14.7586 10.0872 14.7586 9.89537 14.7711 9.70418C14.7498 9.52815 14.7498 9.3502 14.7711 9.17418L15.014 8.4896C15.809 7.6946 19.9386 8.4896 25.4594 12.6854C24.524 13.109 23.5233 13.3704 22.5002 13.4583V17.875C24.846 17.7401 27.1219 17.027 29.1252 15.7992L30.1852 16.815C31.1127 17.7425 31.974 18.6921 32.7911 19.6417C31.527 21.9276 31.0607 24.5695 31.4661 27.15L35.8827 26.2888C35.7537 25.4694 35.7537 24.6348 35.8827 23.8154C36.5588 24.8362 37.1568 25.9066 37.6715 27.0175C38.9081 29.9325 38.8198 31.5667 38.4223 31.9421Z" fill="#74BDA5"/>
</svg>
