<svg width="50" height="50" viewBox="0 0 50 50" fill="none" xmlns="http://www.w3.org/2000/svg">
<path d="M17.5 33.75H32.5M18.75 21.25V20M31.25 21.25V20M2.5 41.405V25.11C2.5 12.625 12.575 2.5 25 2.5C37.425 2.5 47.5 12.625 47.5 25.11V41.4025C47.5 44.3075 45.0825 47.7 42.5 46.4025C40.4125 45.3525 36.9425 45.1025 35 46.4025C32.815 47.865 29.685 47.865 27.5 46.4025C25.2875 44.92 23.3775 44.9775 21.25 46.4025C19.065 47.865 15.935 47.865 13.75 46.4025C11.8075 45.1025 9.5875 45.3525 7.5 46.4025C4.9175 47.7 2.5 44.31 2.5 41.405Z" stroke="#B5A33B" stroke-width="4" stroke-linecap="round" stroke-linejoin="round"/>
</svg>
