<svg width="27" height="51" viewBox="0 0 27 51" fill="none" xmlns="http://www.w3.org/2000/svg">
<path fill-rule="evenodd" clip-rule="evenodd" d="M8.79697 9.42407C8.79697 7.54071 9.30697 6.39686 9.96268 5.72657C10.6111 5.06357 11.7003 4.55357 13.4999 4.55357C15.2995 4.55357 16.3923 5.06357 17.0371 5.72657C17.6928 6.39686 18.2028 7.54071 18.2028 9.42407C18.2028 11.3074 17.6928 12.4476 17.0371 13.1179C16.3923 13.7809 15.2995 14.2909 13.5035 14.2909C11.7076 14.2909 10.6111 13.7809 9.96268 13.1179C9.30697 12.4476 8.79697 11.3038 8.79697 9.42407ZM13.4999 0C10.8333 0 8.43633 0.775929 6.70597 2.54271C4.98654 4.30221 4.2434 6.732 4.2434 9.42407C4.2434 12.1125 4.98654 14.5423 6.70597 16.3018L6.77883 16.3746C2.63325 18.7971 0.0322533 23.3908 0.92111 28.5126C1.20161 30.1374 1.50397 31.7439 1.8209 33.1755C2.63325 36.8402 3.99932 41.5286 5.04847 44.9565C6.17047 48.6249 9.66761 51 13.4999 51C17.3322 51 20.8293 48.6249 21.9513 44.9565C23.0005 41.5286 24.3665 36.8402 25.1753 33.1791C25.4922 31.7439 25.7945 30.1374 26.0787 28.5126C26.9639 23.3908 24.3665 18.8008 20.221 16.3783L20.2938 16.3018C22.0133 14.5423 22.76 12.1125 22.76 9.42407C22.76 6.72836 22.0133 4.30221 20.2975 2.54271C18.5708 0.775929 16.1701 0 13.4999 0Z" fill="#CD6E6E"/>
</svg>
