<svg width="52" height="52" viewBox="0 0 52 52" fill="none" xmlns="http://www.w3.org/2000/svg">
<path d="M2 26C2 29.1517 2.62078 32.2726 3.82689 35.1844C5.033 38.0962 6.80083 40.742 9.02944 42.9706C11.258 45.1992 13.9038 46.967 16.8156 48.1731C19.7274 49.3792 22.8483 50 26 50C29.1517 50 32.2726 49.3792 35.1844 48.1731C38.0962 46.967 40.742 45.1992 42.9706 42.9706C45.1992 40.742 46.967 38.0962 48.1731 35.1844C49.3792 32.2726 50 29.1517 50 26C50 22.8483 49.3792 19.7274 48.1731 16.8156C46.967 13.9038 45.1992 11.258 42.9706 9.02944C40.742 6.80083 38.0962 5.033 35.1844 3.82689C32.2726 2.62078 29.1517 2 26 2C22.8483 2 19.7274 2.62078 16.8156 3.82689C13.9038 5.033 11.258 6.80083 9.02944 9.02944C6.80083 11.258 5.033 13.9038 3.82689 16.8156C2.62078 19.7274 2 22.8483 2 26Z" stroke="#B5A33B" stroke-width="4" stroke-linecap="round" stroke-linejoin="round"/>
<path d="M32.6665 36.8C31.7975 35.913 30.7602 35.2084 29.6155 34.7274C28.4708 34.2464 27.2415 33.9986 25.9998 33.9986C24.7581 33.9986 23.5289 34.2464 22.3842 34.7274C21.2394 35.2084 20.2022 35.913 19.3332 36.8M20.6665 18.6666C19.3332 21.3333 13.9998 21.3333 12.6665 18.6666M39.3332 18.6666C37.9998 21.3333 32.6665 21.3333 31.3332 18.6666" stroke="#B5A33B" stroke-width="4" stroke-linecap="round" stroke-linejoin="round"/>
</svg>
