<svg width="52" height="52" viewBox="0 0 52 52" fill="none" xmlns="http://www.w3.org/2000/svg">
<path d="M25.9998 31.1666C18.2498 31.1666 15.6665 38.9166 15.6665 38.9166H36.3332C36.3332 38.9166 33.7498 31.1666 25.9998 31.1666Z" fill="#B5A33B"/>
<path d="M25.9998 0.166626C11.7553 0.166626 0.166504 11.7555 0.166504 26C0.166504 40.2445 11.7553 51.8333 25.9998 51.8333C40.2443 51.8333 51.8332 40.2445 51.8332 26C51.8332 11.7555 40.2443 0.166626 25.9998 0.166626ZM25.9998 46.6666C14.6048 46.6666 5.33317 37.395 5.33317 26C5.33317 14.6049 14.6048 5.33329 25.9998 5.33329C37.3949 5.33329 46.6665 14.6049 46.6665 26C46.6665 37.395 37.3949 46.6666 25.9998 46.6666Z" fill="#B5A33B"/>
<path d="M40.3505 17.816L37.4856 13.5173L29.7356 18.684C29.3588 18.935 29.0547 19.2807 28.8535 19.6863C28.6524 20.0919 28.5614 20.5432 28.5897 20.9951C28.618 21.4469 28.7645 21.8834 29.0145 22.2608C29.2646 22.6382 29.6095 22.9433 30.0146 23.1454L40.3479 28.3121L42.66 23.6905L36.3076 20.5156L40.3505 17.816ZM23.4116 20.9935C23.4397 20.542 23.3488 20.0911 23.148 19.6858C22.9472 19.2805 22.6434 18.9351 22.2672 18.684L14.5172 13.5173L11.6497 17.816L15.6952 20.513L9.34277 23.6879L11.6549 28.3095L21.9882 23.1428C22.3929 22.9406 22.7374 22.6356 22.9872 22.2584C23.237 21.8812 23.3833 21.445 23.4116 20.9935Z" fill="#B5A33B"/>
</svg>
