<svg width="44" height="46" viewBox="0 0 44 46" fill="none" xmlns="http://www.w3.org/2000/svg">
<path d="M21.7284 20.9139C20.5531 30.3784 14.5501 32.062 14.5501 38.6423C14.5501 42.7041 17.961 46 21.9998 46C26.0386 46 29.4472 42.7018 29.4472 38.6423C29.4472 32.062 23.4442 30.3784 22.2689 20.9139C22.2321 20.631 21.7652 20.631 21.7284 20.9139ZM7.93074 0.213884C6.75544 9.67838 0.752441 11.3597 0.752441 17.9423C0.752441 22.0018 4.16104 25.3 8.19984 25.3C12.2386 25.3 15.6472 22.0018 15.6472 17.9423C15.6472 11.362 9.64424 9.67838 8.46894 0.213884C8.43444 -0.069016 7.96524 -0.069016 7.93074 0.213884ZM35.5307 0.213884C34.3554 9.67838 28.3524 11.362 28.3524 17.9423C28.3524 22.0018 31.761 25.3 35.7998 25.3C39.8386 25.3 43.2472 22.0018 43.2472 17.9423C43.2472 11.362 37.2442 9.67838 36.0689 0.213884C36.0321 -0.069016 35.5652 -0.069016 35.5307 0.213884Z" fill="#CD6E6E"/>
</svg>
