<svg width="53" height="42" viewBox="0 0 53 42" fill="none" xmlns="http://www.w3.org/2000/svg">
<path d="M26.463 0.845093C15.6964 0.845093 8.28898 5.5824 0.986152 13.925C9.23645 11.4886 17.4806 10.0367 25.6632 9.90134C25.9585 9.90134 26.2538 9.88904 26.5491 9.88904C34.2027 9.85212 41.807 10.9595 49.3497 13.4943C47.098 11.2549 45.0923 8.84314 42.7544 6.75134C38.9892 3.42908 34.4611 0.845093 26.463 0.845093ZM30.6589 12.3008C30.9127 12.8829 31.0426 13.5114 31.0403 14.1465C31.0377 14.6014 30.9672 15.0535 30.8312 15.4877C30.6494 15.0884 30.3568 14.7498 29.9882 14.512C29.6195 14.2742 29.1904 14.1474 28.7517 14.1465C28.4501 14.1466 28.1516 14.2063 27.8732 14.3222C27.5948 14.438 27.342 14.6077 27.1293 14.8215C26.9167 15.0353 26.7484 15.289 26.634 15.568C26.5197 15.847 26.4615 16.1459 26.463 16.4474C26.4639 16.8861 26.5908 17.3153 26.8285 17.6839C27.0663 18.0526 27.405 18.3452 27.8042 18.5269C27.3694 18.6588 26.9174 18.7251 26.463 18.7238C25.861 18.7249 25.2647 18.6074 24.7081 18.3779C24.1516 18.1484 23.6457 17.8115 23.2195 17.3864C22.7932 16.9613 22.4549 16.4563 22.224 15.9004C21.993 15.3445 21.8738 14.7485 21.8734 14.1465C21.8739 13.5289 21.9995 12.9178 22.2425 12.35C21.0243 12.4238 19.8062 12.5345 18.6003 12.6576C18.5019 13.1498 18.4527 13.642 18.4527 14.1465C18.4527 18.5885 22.021 22.1445 26.463 22.1445C30.905 22.1445 34.4611 18.5885 34.4611 14.1465C34.4611 13.6174 34.4118 13.0883 34.3011 12.5838C33.0952 12.4484 31.8648 12.3623 30.6589 12.3008ZM36.7128 12.8791C36.762 13.2974 36.7866 13.7158 36.7866 14.1465C36.7866 19.8312 32.1478 24.4701 26.463 24.4701C20.7782 24.4701 16.1517 19.8312 16.1517 14.1465C16.1517 13.7404 16.1763 13.3467 16.2255 12.9529C11.0575 13.6666 5.88588 14.8601 0.669922 16.4351C8.73195 20.3972 17.579 25.3806 26.463 25.3806C33.9935 25.3806 41.4132 23.658 51.5646 16.7674C46.6304 14.8601 41.6839 13.5804 36.7128 12.8791ZM52.3275 19.056C50.4571 20.2988 48.6484 21.3816 46.9134 22.3291C39.0384 31.5084 27.1398 35.1629 14.0107 35.7043L14.1214 38.0299C27.6935 37.4638 40.4534 33.551 48.8452 23.6211C46.4827 30.0564 41.3025 35.0152 35.9745 40.1586L37.5988 41.832C44.1695 35.4828 51.1339 28.9367 52.3275 19.056Z" fill="#B5A33B"/>
</svg>
