<svg width="41" height="45" viewBox="0 0 41 45" fill="none" xmlns="http://www.w3.org/2000/svg">
<path d="M35.9583 39.9584H5.04167V15.6667H35.9583M29.3333 0.208374V4.62504H11.6667V0.208374H7.25V4.62504H5.04167C2.59042 4.62504 0.625 6.59046 0.625 9.04171V39.9584C0.625 41.1297 1.09033 42.2531 1.91861 43.0814C2.7469 43.9097 3.87029 44.375 5.04167 44.375H35.9583C37.1297 44.375 38.2531 43.9097 39.0814 43.0814C39.9097 42.2531 40.375 41.1297 40.375 39.9584V9.04171C40.375 7.87033 39.9097 6.74694 39.0814 5.91865C38.2531 5.09037 37.1297 4.62504 35.9583 4.62504H33.75V0.208374M31.5417 24.5H20.5V35.5417H31.5417V24.5Z" fill="#74BDA5"/>
</svg>
