<svg width="47" height="46" viewBox="0 0 47 46" fill="none" xmlns="http://www.w3.org/2000/svg">
<path fill-rule="evenodd" clip-rule="evenodd" d="M4.57136 2.42862C4.57136 1.8603 4.34559 1.31526 3.94373 0.913395C3.54187 0.511531 2.99682 0.285767 2.4285 0.285767C1.86018 0.285767 1.31514 0.511531 0.913273 0.913395C0.511409 1.31526 0.285645 1.8603 0.285645 2.42862V43.5715C0.285645 44.7543 1.24564 45.7143 2.4285 45.7143H43.5714C44.1397 45.7143 44.6847 45.4886 45.0866 45.0867C45.4885 44.6848 45.7142 44.1398 45.7142 43.5715C45.7142 43.0032 45.4885 42.4581 45.0866 42.0562C44.6847 41.6544 44.1397 41.4286 43.5714 41.4286H4.57136V2.42862ZM33.3165 6.84462C32.9892 6.61076 32.6182 6.44511 32.2255 6.35753C31.8329 6.26996 31.4266 6.26225 31.031 6.33486C30.6353 6.40747 30.2583 6.55892 29.9223 6.7802C29.5863 7.00147 29.2983 7.28806 29.0754 7.62291L17.3908 25.1498L12.2651 20.0172C11.9859 19.7383 11.6546 19.5171 11.2899 19.3662C10.9253 19.2153 10.5345 19.1377 10.1399 19.1379C9.74524 19.1381 9.35451 19.216 8.98999 19.3671C8.62547 19.5183 8.29429 19.7398 8.01536 20.0189C7.73643 20.2981 7.51522 20.6294 7.36435 20.9941C7.21348 21.3587 7.13591 21.7495 7.13607 22.1441C7.13623 22.5387 7.21412 22.9295 7.36528 23.294C7.51644 23.6585 7.73792 23.9897 8.01707 24.2686L15.7314 31.9829C16.0454 32.2968 16.4251 32.5371 16.8433 32.6864C17.2614 32.8357 17.7074 32.8904 18.1493 32.8465C18.5911 32.8025 19.0176 32.661 19.3981 32.4323C19.7786 32.2035 20.1036 31.8931 20.3496 31.5235L32.3462 13.5303L41.8228 20.3018C42.4702 20.7646 43.275 20.9513 44.0601 20.8208C44.8452 20.6902 45.5462 20.2532 46.0091 19.6058C46.4719 18.9583 46.6586 18.1536 46.5281 17.3685C46.3976 16.5834 45.9605 15.8823 45.3131 15.4195L33.3165 6.84462Z" fill="#585858"/>
</svg>
