<svg width="55" height="45" viewBox="0 0 55 45" fill="none" xmlns="http://www.w3.org/2000/svg">
<path d="M10.2915 16.3542C10.2915 16.3542 3.9699 18.8126 2.9165 27.4167M44.7082 16.3542C44.7082 16.3542 51.0298 18.8126 52.0832 27.4167M20.1248 16.3542C20.1248 16.3542 26.0248 17.7887 27.4998 24.9584C28.9748 17.7887 34.8748 16.3542 34.8748 16.3542M22.5832 34.7917C22.5832 34.7917 17.4207 35.7136 15.2082 42.1667M32.4165 34.7917C32.4165 34.7917 37.579 35.7136 39.7915 42.1667" stroke="#CD9E6E" stroke-width="4" stroke-linecap="round"/>
<path d="M27.4998 37.25C30.8941 37.25 33.6457 34.4985 33.6457 31.1042C33.6457 27.71 30.8941 24.9584 27.4998 24.9584C24.1056 24.9584 21.354 27.71 21.354 31.1042C21.354 34.4985 24.1056 37.25 27.4998 37.25Z" stroke="#CD9E6E" stroke-width="4" stroke-linecap="round" stroke-linejoin="round"/>
<path d="M39.7915 17.5834C43.8646 17.5834 47.1665 14.2815 47.1665 10.2084C47.1665 6.13527 43.8646 2.83337 39.7915 2.83337C35.7184 2.83337 32.4165 6.13527 32.4165 10.2084C32.4165 14.2815 35.7184 17.5834 39.7915 17.5834Z" stroke="#CD9E6E" stroke-width="4" stroke-linecap="round" stroke-linejoin="round"/>
<path d="M15.208 17.5834C19.2811 17.5834 22.583 14.2815 22.583 10.2084C22.583 6.13527 19.2811 2.83337 15.208 2.83337C11.1349 2.83337 7.83301 6.13527 7.83301 10.2084C7.83301 14.2815 11.1349 17.5834 15.208 17.5834Z" stroke="#CD9E6E" stroke-width="4" stroke-linecap="round" stroke-linejoin="round"/>
</svg>
