<svg width="49" height="43" viewBox="0 0 49 43" fill="none" xmlns="http://www.w3.org/2000/svg">
<path d="M26.7037 0.416626V2.62496H42.1621V7.04163H26.7037V37.9583H35.5371V42.375H13.4537V37.9583H22.2871V7.04163H6.82874V2.62496H22.2871V0.416626H26.7037ZM9.03708 10.0074L15.2822 16.2548C16.5176 17.4902 17.3588 19.0641 17.6996 20.7776C18.0404 22.4911 17.8655 24.2672 17.1969 25.8812C16.5283 27.4953 15.3961 28.8748 13.9435 29.8454C12.4908 30.816 10.783 31.3341 9.03597 31.3341C7.28893 31.3341 5.58111 30.816 4.12848 29.8454C2.67586 28.8748 1.54367 27.4953 0.875082 25.8812C0.206494 24.2672 0.0315382 22.4911 0.372337 20.7776C0.713137 19.0641 1.55438 17.4902 2.7897 16.2548L9.03708 10.0074ZM39.9537 10.0074L46.1989 16.2548C47.4342 17.4902 48.2755 19.0641 48.6163 20.7776C48.9571 22.4911 48.7821 24.2672 48.1135 25.8812C47.445 27.4953 46.3128 28.8748 44.8601 29.8454C43.4075 30.816 41.6997 31.3341 39.9526 31.3341C38.2056 31.3341 36.4978 30.816 35.0452 29.8454C33.5925 28.8748 32.4603 27.4953 31.7917 25.8812C31.1232 24.2672 30.9482 22.4911 31.289 20.7776C31.6298 19.0641 32.4711 17.4902 33.7064 16.2548L39.9537 10.0074ZM39.9537 16.2548L36.8312 19.3774C36.0028 20.2055 35.5373 21.3287 35.5371 22.5L44.3704 22.5022C44.3704 21.3097 43.9023 20.2033 43.0763 19.3774L39.9537 16.2548ZM9.03708 16.2548L5.9145 19.3774C5.08615 20.2055 4.62066 21.3287 4.62041 22.5L13.4537 22.5022C13.4537 21.3097 12.9856 20.2033 12.1597 19.3774L9.03708 16.2548Z" fill="#B94848"/>
</svg>
