<svg width="52" height="52" viewBox="0 0 52 52" fill="none" xmlns="http://www.w3.org/2000/svg">
<path fill-rule="evenodd" clip-rule="evenodd" d="M5.57157 21.8623C5.57157 15.7709 7.243 11.5663 10.0213 8.87343C12.8107 6.16943 17.0673 4.64286 22.9247 4.64286C30.3756 4.64286 35.2376 7.42857 38.729 11.5551C42.3244 15.8043 44.5604 21.5874 46.3767 27.7011C46.4584 27.9723 46.451 28.2434 46.3879 28.4477C46.3524 28.5866 46.268 28.7079 46.1501 28.7894C45.4964 29.2017 44.9839 29.3726 43.1379 29.2983C42.8256 29.2858 42.514 29.3365 42.2218 29.4473C41.9296 29.5581 41.6628 29.7268 41.4373 29.9432C41.2119 30.1596 41.0325 30.4194 40.9098 30.7068C40.7872 30.9942 40.7238 31.3035 40.7236 31.616V36.7826C40.7236 37.6445 40.3812 38.4712 39.7717 39.0807C39.1622 39.6902 38.3355 40.0326 37.4736 40.0326H35.7539C33.1019 40.0326 30.5167 41.8674 30.1527 44.8463L30.1341 45.1286V49.6786C30.1341 50.2943 30.3787 50.8847 30.8141 51.3201C31.2494 51.7554 31.8399 52 32.4556 52C33.0713 52 33.6617 51.7554 34.0971 51.3201C34.5324 50.8847 34.777 50.2943 34.777 49.6786V45.3143C34.8178 45.1569 34.9092 45.0173 35.037 44.9169C35.2405 44.7553 35.4941 44.6699 35.7539 44.6754H37.4736C39.5669 44.6754 41.5745 43.8439 43.0547 42.3637C44.5349 40.8835 45.3664 38.8759 45.3664 36.7826V33.878C46.5104 33.7406 47.5356 33.4063 48.6276 32.7191C50.9267 31.2706 51.4616 28.5109 50.8264 26.3751C48.9767 20.1611 46.5253 13.5831 42.2724 8.55771C37.923 3.40971 31.7721 0 22.9247 0C16.3059 0 10.7196 1.73086 6.78985 5.54171C2.849 9.36 0.928711 14.9314 0.928711 21.8623C0.928711 26.5423 1.53043 29.8109 2.57414 32.5669C3.43585 34.84 4.591 36.7157 5.72757 38.558L6.34043 39.5609C7.57357 41.5926 8.13443 44.0254 8.12328 46.5883V49.6786C8.12328 50.2943 8.36786 50.8847 8.80321 51.3201C9.23857 51.7554 9.82903 52 10.4447 52C11.0604 52 11.6509 51.7554 12.0862 51.3201C12.5216 50.8847 12.7661 50.2943 12.7661 49.6786V46.5994C12.7773 43.3791 12.0753 40.0623 10.311 37.1503L9.635 36.0471C8.50585 34.2086 7.61071 32.7489 6.91614 30.9214C6.11757 28.808 5.57157 26.1226 5.57157 21.8623ZM24.6704 10.1326C25.4422 10.1355 26.1954 10.3695 26.8329 10.8044C27.4704 11.2394 27.9631 11.8553 28.2473 12.5729L28.7264 13.7949L29.915 14.482L31.215 14.2851C31.9796 14.17 32.7611 14.2882 33.4575 14.6241C34.154 14.9601 34.7329 15.4982 35.1187 16.1683L35.8133 17.3717C36.2033 18.0403 36.3779 18.8129 36.3184 19.5854C36.2933 19.8504 36.2397 20.1119 36.1587 20.3654C36.0919 20.5635 36.025 20.7319 35.9581 20.8706C35.8653 21.0749 35.6759 21.4277 35.7241 21.3311C35.6465 21.4728 35.5596 21.6093 35.4641 21.7397L35.297 21.9551C35.1819 22.1037 35.037 22.2783 34.8959 22.4491L34.673 22.7203V24.0946L34.8959 24.3657L35.5496 25.1977C35.6121 25.2916 35.6704 25.3883 35.7241 25.4874C35.6721 25.3871 35.8616 25.74 35.9581 25.948C36.025 26.0842 36.0919 26.2526 36.1587 26.4531C36.2181 26.6389 36.2924 26.9137 36.3184 27.2331C36.3779 28.002 36.1996 28.7746 35.8133 29.4431L35.1187 30.6466C34.7307 31.3155 34.1509 31.8526 33.4543 32.1884C32.7576 32.5241 31.9763 32.643 31.2113 32.5297L29.915 32.3329L28.7264 33.0237L28.2436 34.242C27.9643 34.9632 27.4729 35.5827 26.8344 36.0191C26.1959 36.4554 25.4401 36.6879 24.6667 36.686H23.2701C22.4979 36.6828 21.7444 36.4482 21.1069 36.0126C20.4693 35.577 19.9769 34.9602 19.6933 34.242L19.2141 33.0237L18.0256 32.3329L16.7256 32.5297C15.961 32.6448 15.1794 32.5267 14.483 32.1907C13.7866 31.8548 13.2077 31.3166 12.8219 30.6466L12.1273 29.4431C11.7395 28.7744 11.5634 28.0039 11.6221 27.2331C11.6473 26.9682 11.7008 26.7067 11.7819 26.4531C11.8487 26.255 11.9156 26.0867 11.9824 25.948C12.0753 25.74 12.2647 25.3909 12.2164 25.4874C12.2941 25.3457 12.381 25.2092 12.4764 25.0789L12.6436 24.8634L13.0447 24.3657L13.2676 24.0946V22.7203L13.0447 22.4491L12.391 21.6171C12.3285 21.5245 12.2703 21.4291 12.2164 21.3311C12.2684 21.4277 12.079 21.0749 11.9824 20.8706C11.9032 20.7061 11.8361 20.536 11.7819 20.3617C11.7008 20.1082 11.6473 19.8467 11.6221 19.5817C11.5634 18.8109 11.7395 18.0404 12.1273 17.3717L12.8219 16.1683C13.2098 15.4993 13.7897 14.9622 14.4863 14.6265C15.1829 14.2908 15.9643 14.1718 16.7293 14.2851L18.0256 14.482L19.2141 13.7949L19.697 12.5729C19.9791 11.8539 20.4712 11.2365 21.1092 10.8012C21.7472 10.366 22.5015 10.1329 23.2739 10.1326H24.6704ZM23.9684 27.2443C26.4236 27.2443 27.8053 25.8663 27.8053 23.4074C27.8053 20.956 26.4236 19.5743 23.9684 19.5743C21.5133 19.5743 20.1316 20.9486 20.1316 23.4074C20.1316 25.8663 21.5133 27.2443 23.9684 27.2443Z" fill="#B94848"/>
</svg>
