<svg width="49" height="52" viewBox="0 0 49 52" fill="none" xmlns="http://www.w3.org/2000/svg">
<path d="M20.5 23.5C23.2848 23.5 25.9555 22.3938 27.9246 20.4246C29.8938 18.4555 31 15.7848 31 13C31 10.2152 29.8938 7.54451 27.9246 5.57538C25.9555 3.60625 23.2848 2.5 20.5 2.5C17.7152 2.5 15.0445 3.60625 13.0754 5.57538C11.1062 7.54451 10 10.2152 10 13C10 15.7848 11.1062 18.4555 13.0754 20.4246C15.0445 22.3938 17.7152 23.5 20.5 23.5Z" stroke="#CD9D6E" stroke-width="4" stroke-linecap="round" stroke-linejoin="round"/>
<path d="M46.7498 37.36C46.7496 38.9395 46.1249 40.4548 45.0121 41.5757C42.4501 44.1587 39.9642 46.852 37.3051 49.3405C37.0081 49.6117 36.6181 49.7583 36.216 49.75C35.8138 49.7417 35.4303 49.5791 35.1447 49.2958L27.485 41.5783C26.3709 40.4571 25.7456 38.9406 25.7456 37.36C25.7456 35.7793 26.3709 34.2629 27.485 33.1416C28.0406 32.5815 28.7016 32.1369 29.4299 31.8336C30.1582 31.5302 30.9393 31.374 31.7283 31.374C32.5172 31.374 33.2984 31.5302 34.0266 31.8336C34.7549 32.1369 35.4159 32.5815 35.9716 33.1416L36.2498 33.4225L36.5281 33.1416C37.3625 32.2999 38.4284 31.7253 39.5902 31.4908C40.752 31.2563 41.9573 31.3726 43.0529 31.8247C44.1485 32.2768 45.0849 33.0445 45.7432 34.0301C46.4014 35.0157 46.7518 36.1747 46.7498 37.36Z" stroke="#CD9D6E" stroke-width="4" stroke-linejoin="round"/>
<path d="M2.125 44.5V41.875C2.12436 38.7748 2.90812 35.7249 4.40333 33.0091C5.89854 30.2933 8.05658 27.9999 10.6765 26.3425C13.2965 24.6851 16.2932 23.7176 19.3878 23.5299C22.4823 23.3423 25.5739 23.9406 28.375 25.2693" stroke="#CD9D6E" stroke-width="4" stroke-linecap="round" stroke-linejoin="round"/>
</svg>
