<svg width="52" height="52" viewBox="0 0 52 52" fill="none" xmlns="http://www.w3.org/2000/svg">
<path d="M18 20.6667H17.9733M34 20.6667H33.9733M26 50C22.8483 50 19.7274 49.3792 16.8156 48.1731C13.9038 46.967 11.258 45.1992 9.02944 42.9706C6.80083 40.742 5.033 38.0962 3.82689 35.1844C2.62078 32.2726 2 29.1517 2 26C2 22.8483 2.62078 19.7274 3.82689 16.8156C5.033 13.9038 6.80083 11.258 9.02944 9.02944C11.258 6.80083 13.9038 5.033 16.8156 3.82689C19.7274 2.62078 22.8483 2 26 2C32.3652 2 38.4697 4.52856 42.9706 9.02944C47.4714 13.5303 50 19.6348 50 26C50 32.3652 47.4714 38.4697 42.9706 42.9706C38.4697 47.4714 32.3652 50 26 50Z" stroke="#B94848" stroke-width="4" stroke-linecap="round" stroke-linejoin="round"/>
<path d="M15.3335 36.6667L18.0002 34L22.0002 36.6667L26.0002 34L30.0002 36.6667L34.0002 34L36.6668 36.6667" stroke="#B94848" stroke-width="4" stroke-linecap="round" stroke-linejoin="round"/>
</svg>
