<svg width="47" height="47" viewBox="0 0 47 47" fill="none" xmlns="http://www.w3.org/2000/svg">
<path fill-rule="evenodd" clip-rule="evenodd" d="M16.875 0.3125C15.3376 0.3125 13.8631 0.92324 12.776 2.01037C11.6889 3.09749 11.0781 4.57195 11.0781 6.10938V10.25H6.9375C5.18044 10.25 3.49535 10.948 2.25292 12.1904C1.01049 13.4328 0.3125 15.1179 0.3125 16.875V40.0625C0.3125 41.8196 1.01049 43.5047 2.25292 44.7471C3.49535 45.9895 5.18044 46.6875 6.9375 46.6875H40.0625C41.8196 46.6875 43.5047 45.9895 44.7471 44.7471C45.9895 43.5047 46.6875 41.8196 46.6875 40.0625V16.875C46.6875 15.1179 45.9895 13.4328 44.7471 12.1904C43.5047 10.948 41.8196 10.25 40.0625 10.25H35.9219V6.10938C35.9219 4.57195 35.3111 3.09749 34.224 2.01037C33.1369 0.92324 31.6624 0.3125 30.125 0.3125H16.875ZM30.9531 10.25V6.10938C30.9531 5.88974 30.8659 5.67911 30.7106 5.5238C30.5553 5.3685 30.3446 5.28125 30.125 5.28125H16.875C16.6554 5.28125 16.4447 5.3685 16.2894 5.5238C16.1341 5.67911 16.0469 5.88974 16.0469 6.10938V10.25H30.9531ZM6.9375 15.2188H40.0625C40.5018 15.2188 40.923 15.3932 41.2336 15.7039C41.5443 16.0145 41.7188 16.4357 41.7188 16.875V20.1875H5.28125V16.875C5.28125 16.4357 5.45575 16.0145 5.76635 15.7039C6.07696 15.3932 6.49824 15.2188 6.9375 15.2188ZM5.28125 25.1562V40.0625C5.28125 40.5018 5.45575 40.923 5.76635 41.2336C6.07696 41.5443 6.49824 41.7188 6.9375 41.7188H40.0625C40.5018 41.7188 40.923 41.5443 41.2336 41.2336C41.5443 40.923 41.7188 40.5018 41.7188 40.0625V25.1562H26.8125V30.125H20.1875V25.1562H5.28125Z" fill="#74BDA5"/>
</svg>
