<svg width="493" height="484" viewBox="0 0 493 484" fill="none" xmlns="http://www.w3.org/2000/svg">
<path fill-rule="evenodd" clip-rule="evenodd" d="M191.385 57.6714C169.64 64.1674 151.266 78.8528 140.137 98.6319C129.009 118.411 125.994 141.738 131.73 163.697C109.087 163.776 87.3666 172.677 71.1807 188.511C54.9947 204.345 45.618 225.865 45.0416 248.501C44.4651 271.136 52.7344 293.105 68.0934 309.743C83.4524 326.38 104.692 336.376 127.301 337.607C120.648 359.07 122.616 382.28 132.788 402.317C142.959 422.353 160.535 437.64 181.788 444.936C203.119 452.367 226.493 451.296 247.054 441.944C267.615 432.593 283.784 415.681 292.203 394.72C303.749 402.771 317.06 407.931 331.016 409.763C344.973 411.595 359.165 410.047 372.398 405.248C385.631 400.449 397.517 392.541 407.054 382.189C416.592 371.837 423.503 359.345 427.204 345.764C431.542 329.718 431.16 312.761 426.104 296.926C421.048 281.091 411.533 267.051 398.699 256.487C416.778 243.08 428.934 223.169 432.6 200.963C436.266 178.757 431.153 155.995 418.343 137.49L406.638 145.585L418.308 137.471C405.406 118.928 385.818 106.11 363.66 101.711C341.503 97.3124 318.504 101.676 299.498 113.885C292.306 92.3091 277.002 74.3783 256.824 63.8867C236.646 53.3951 213.178 51.1661 191.385 57.6714Z" fill="#A8E6CF"/>
<path d="M266.561 309.365C299.738 299.455 318.651 264.73 308.806 231.77C298.962 198.811 264.103 180.146 230.925 190.055C197.748 199.965 178.835 234.69 188.68 267.65C198.524 300.609 233.383 319.274 266.561 309.365Z" fill="#4CA78A"/>
</svg>
