<svg width="75" height="37" viewBox="0 0 75 37" fill="none" xmlns="http://www.w3.org/2000/svg">
<path d="M74.7969 18.5C74.7973 22.0696 73.7392 25.5592 71.7562 28.5274C69.7732 31.4956 66.9545 33.8091 63.6566 35.1752C60.3587 36.5413 56.7297 36.8986 53.2287 36.2021C49.7276 35.5056 46.5118 33.7865 43.9879 31.2621L43.8405 31.1027L25.8357 10.7729C24.3136 9.27859 22.3839 8.26715 20.289 7.86552C18.1941 7.46389 16.0272 7.68995 14.0603 8.51534C12.0934 9.34074 10.414 10.7287 9.23306 12.505C8.05209 14.2813 7.42207 16.3669 7.42207 18.5C7.42207 20.6331 8.05209 22.7186 9.23306 24.4949C10.414 26.2713 12.0934 27.6592 14.0603 28.4846C16.0272 29.31 18.1941 29.5361 20.289 29.1344C22.3839 28.7328 24.3136 27.7214 25.8357 26.227L26.7622 25.1803C27.0764 24.8248 27.4575 24.5347 27.8839 24.3265C28.3102 24.1183 28.7734 23.9962 29.2469 23.967C29.7205 23.9378 30.1952 24.0022 30.6438 24.1564C31.0925 24.3107 31.5064 24.5518 31.8619 24.866C32.2174 25.1802 32.5075 25.5614 32.7157 25.9877C32.9239 26.4141 33.0461 26.8772 33.0753 27.3508C33.1044 27.8243 33.0401 28.299 32.8858 28.7477C32.7316 29.1964 32.4904 29.6103 32.1762 29.9658L31.1686 31.1027L31.0212 31.2621C28.4972 33.7857 25.2815 35.5042 21.7809 36.2003C18.2802 36.8964 14.6517 36.5388 11.3543 35.1728C8.05683 33.8068 5.23847 31.4937 3.25559 28.526C1.27271 25.5582 0.214355 22.0692 0.214355 18.5C0.214355 14.9308 1.27271 11.4417 3.25559 8.47398C5.23847 5.50626 8.05683 3.19314 11.3543 1.82713C14.6517 0.461112 18.2802 0.103545 21.7809 0.79964C25.2815 1.49573 28.4972 3.21423 31.0212 5.73782L31.1686 5.89724L49.1734 26.227C50.6956 27.7214 52.6252 28.7328 54.7201 29.1344C56.815 29.5361 58.9819 29.31 60.9488 28.4846C62.9158 27.6592 64.5951 26.2713 65.7761 24.4949C66.957 22.7186 67.587 20.6331 67.587 18.5C67.587 16.3669 66.957 14.2813 65.7761 12.505C64.5951 10.7287 62.9158 9.34074 60.9488 8.51534C58.9819 7.68995 56.815 7.46389 54.7201 7.86552C52.6252 8.26715 50.6956 9.27859 49.1734 10.7729L48.247 11.8196C47.9327 12.1751 47.5516 12.4652 47.1252 12.6734C46.6989 12.8816 46.2357 13.0038 45.7622 13.033C45.2886 13.0622 44.814 12.9978 44.3653 12.8435C43.9166 12.6893 43.5027 12.4482 43.1472 12.1339C42.7917 11.8197 42.5016 11.4386 42.2934 11.0122C42.0852 10.5859 41.963 10.1227 41.9339 9.64916C41.9047 9.17561 41.969 8.70094 42.1233 8.25226C42.2776 7.80358 42.5187 7.38968 42.8329 7.03419L43.8405 5.89724L43.9879 5.73782C46.5118 3.21349 49.7276 1.49434 53.2287 0.79782C56.7297 0.101298 60.3587 0.45869 63.6566 1.82479C66.9545 3.1909 69.7732 5.50434 71.7562 8.47254C73.7392 11.4407 74.7973 14.9303 74.7969 18.5Z" fill="#63C2A5"/>
</svg>
