<svg width="26" height="22" viewBox="0 0 26 22" fill="none" xmlns="http://www.w3.org/2000/svg">
<path d="M7.30389 11.2727C7.30389 11.0195 7.40446 10.7768 7.58347 10.5977C7.76248 10.4187 8.00527 10.3182 8.25843 10.3182H16.8493V4.11361C16.8493 2.20452 14.8335 0.772705 13.0312 0.772705H3.96298C3.07721 0.773653 2.22798 1.12594 1.60165 1.75228C0.97531 2.37862 0.623018 3.22784 0.62207 4.11361V18.4318C0.623018 19.3176 0.97531 20.1668 1.60165 20.7931C2.22798 21.4195 3.07721 21.7718 3.96298 21.7727H13.5084C14.3942 21.7718 15.2434 21.4195 15.8698 20.7931C16.4961 20.1668 16.8484 19.3176 16.8493 18.4318V12.2273H8.25843C8.00527 12.2273 7.76248 12.1267 7.58347 11.9477C7.40446 11.7687 7.30389 11.5259 7.30389 11.2727ZM25.1604 10.598L20.3877 5.82523C20.2073 5.65378 19.9669 5.5596 19.718 5.56279C19.4691 5.56598 19.2313 5.66627 19.0553 5.84229C18.8793 6.01831 18.779 6.25613 18.7758 6.50504C18.7726 6.75395 18.8668 6.99425 19.0382 7.17472L22.1811 10.3182H16.8493V12.2273H22.1811L19.0382 15.3707C18.9459 15.4584 18.872 15.5638 18.821 15.6806C18.77 15.7973 18.7429 15.9231 18.7412 16.0505C18.7396 16.1779 18.7635 16.3043 18.8115 16.4223C18.8595 16.5404 18.9306 16.6476 19.0207 16.7377C19.1108 16.8278 19.218 16.8989 19.3361 16.9469C19.4541 16.9949 19.5805 17.0188 19.7079 17.0172C19.8353 17.0155 19.9611 16.9884 20.0779 16.9374C20.1946 16.8864 20.3 16.8125 20.3877 16.7202L25.1604 11.9474C25.3393 11.7685 25.4398 11.5258 25.4398 11.2727C25.4398 11.0197 25.3393 10.777 25.1604 10.598Z" fill="white"/>
</svg>
