<svg width="62" height="62" viewBox="0 0 62 62" fill="none" xmlns="http://www.w3.org/2000/svg">
<path d="M29.1505 49.9964L51.9548 27.1921C48.1185 25.5894 44.6342 23.2491 41.6996 20.3039C38.753 17.3687 36.4116 13.8833 34.8084 10.0457L12.004 32.85C10.225 34.6291 9.33388 35.5202 8.56921 36.5007C7.66701 37.6584 6.8927 38.9103 6.2598 40.2346C5.72638 41.3569 5.32863 42.5533 4.53313 44.9398L0.333632 57.529C0.140349 58.1054 0.111673 58.7243 0.250825 59.3162C0.389978 59.908 0.691443 60.4493 1.12134 60.8791C1.55123 61.309 2.09251 61.6105 2.68433 61.7497C3.27615 61.8888 3.89505 61.8601 4.47147 61.6668L17.0607 57.4673C19.4503 56.6718 20.6435 56.2741 21.7659 55.7407C23.0958 55.1076 24.3405 54.3378 25.4998 53.4313C26.4803 52.6666 27.3714 51.7755 29.1505 49.9964ZM58.2818 20.8651C60.5556 18.5913 61.8329 15.5075 61.8329 12.2919C61.8329 9.07631 60.5556 5.99244 58.2818 3.71868C56.008 1.44492 52.9242 0.167542 49.7086 0.167542C46.493 0.167541 43.4091 1.44492 41.1354 3.71868L38.4005 6.4536L38.5176 6.79585C39.865 10.6524 42.0706 14.1527 44.968 17.0325C47.9339 20.0166 51.5567 22.2657 55.5469 23.6L58.2818 20.8651Z" fill="#A8E6CF"/>
</svg>
